<svg width="170" height="74" viewBox="0 0 170 74" fill="none" xmlns="http://www.w3.org/2000/svg">
<g filter="url(#filter0_i_313_2)">
<path fill-rule="evenodd" clip-rule="evenodd" d="M50.203 13.2866C51.0461 13.453 51.8233 13.6082 51.93 13.6314C52.0521 13.6582 51.8668 14.074 51.4296 14.7542C50.8135 15.7128 50.6572 15.855 50.0426 16.0169C49.3554 16.1978 49.3519 16.2021 49.5921 16.5854C49.8257 16.9583 49.8093 17.0017 49.1166 17.8498C48.705 18.3536 48.2281 18.7665 47.998 18.8181C47.7775 18.8677 47.1339 19.0481 46.568 19.2193C45.9188 19.4155 45.3245 19.4963 44.9584 19.4373C44.4354 19.3534 44.3535 19.3901 44.132 19.8073C43.997 20.062 43.4106 20.6013 42.8291 21.0056C41.0142 22.2672 38.9148 24.807 38.3979 26.3659L38.1948 26.9789L37.9998 26.4979C37.8778 26.1969 37.8059 25.2979 37.8077 24.0935C37.8163 18.4979 40.4005 14.327 44.5533 13.2066C45.8086 12.8681 48.2568 12.9027 50.203 13.2866ZM24.1435 14.7907C29.1348 15.7497 34.0419 19.4948 36.2638 24.0408C36.7112 24.9566 36.969 26.0616 36.7658 26.1929C36.4738 26.3818 34.9252 25.4295 34.6071 24.8656C34.4171 24.5291 34.2144 24.349 34.0843 24.4012C33.7688 24.5278 30.2644 22.2906 29.8166 21.6767C29.4739 21.2066 29.3833 21.1649 28.9735 21.2878C28.5986 21.4002 28.263 21.3115 27.1434 20.8036C25.9026 20.2409 22.976 19.2236 21.8653 18.9691C21.4494 18.8738 21.4399 18.853 21.6828 18.5724C21.9287 18.2882 21.9017 18.2717 21.0211 18.1647C20.5161 18.1035 19.973 18.0965 19.8141 18.1492C19.5245 18.2453 17.3478 17.3929 15.8759 16.6067L15.1194 16.2029L15.6459 16.0304C20.3166 14.5009 21.6347 14.3087 24.1435 14.7907ZM36.4451 39.2008C37.6863 39.2624 37.726 39.3183 37.3999 40.5462C37.2486 41.1158 36.2851 42.2046 35.5857 42.5959C35.2586 42.7789 35.2571 42.7715 35.2571 40.9306C35.2571 39.9137 35.2744 39.0958 35.2954 39.1135C35.3164 39.1309 35.8338 39.1702 36.4451 39.2008ZM37.4672 43.1245C37.5247 43.7663 37.6075 44.4178 37.6512 44.5718C37.7216 44.8214 37.6041 44.8525 36.5904 44.8525H35.4505L35.3555 44.2513C35.2083 43.3206 35.2166 43.3007 35.9086 42.8942C36.2668 42.6839 36.7406 42.3871 36.9614 42.2348L37.3627 41.9578L37.4672 43.1245ZM37.9267 45.8664C38.0404 46.4609 37.6372 47.0646 36.6868 47.7229C36.293 47.9955 35.9199 48.2187 35.8574 48.2187C35.7455 48.2187 35.6648 47.7857 35.4844 46.2151L35.3923 45.4136L36.6154 45.4091L37.8384 45.4049L37.9267 45.8664ZM38.3229 47.2455C38.3229 47.3581 38.5988 48.0659 38.9361 48.8184C39.2733 49.571 39.5492 50.2063 39.5492 50.2303C39.5492 50.3685 36.9312 50.4696 36.4834 50.3486C35.9895 50.2152 35.9408 50.1473 35.8703 49.4919L35.7936 48.7798L36.7134 48.2427C37.2192 47.9472 37.7882 47.5559 37.978 47.3731C38.1941 47.1649 38.3229 47.1172 38.3229 47.2455ZM40.1477 51.2144C40.2803 51.519 40.1856 51.6896 39.4266 52.5119C38.6966 53.3029 37.1216 54.4635 36.7707 54.4691C36.718 54.4699 36.5582 53.8031 36.4158 52.9877C36.2734 52.1722 36.1301 51.3606 36.0971 51.1843C36.0396 50.8771 36.1194 50.8638 38.016 50.8638C39.9029 50.8638 40.0021 50.8801 40.1477 51.2144Z" fill="#F5DEB3"/>
<path fill-rule="evenodd" clip-rule="evenodd" d="M13.0961 18.7386C20.7407 19.278 28.3871 21.6994 34.365 25.4737C36.5576 26.8582 38.1635 28.0687 38.1693 28.3414C38.1773 28.7255 38.471 28.1811 38.4739 27.7767C38.4779 27.2135 39.5841 25.4522 40.7501 24.1516C43.3593 21.2418 46.4231 19.9102 50.919 19.7317C54.2131 19.601 57.5151 20.1121 60.9938 21.2913C62.7887 21.8996 64.8423 22.7455 64.8423 22.8763C64.8423 22.9318 64.5203 23.3618 64.1268 23.8322C63.3661 24.7415 63.3661 24.7415 62.0831 24.4066C61.8723 24.3517 60.8223 25.4088 61.6232 25.8679L61.18 26.322L59.6838 27.0786C58.8609 27.4948 57.3352 28.1391 56.2934 28.5099C54.3721 29.1944 53.7637 29.2539 52.4694 28.8846C52.1924 28.8056 52.0834 28.8899 51.8769 29.3427C51.6291 29.886 51.5915 29.9034 50.0704 30.187C49.216 30.3462 48.4248 30.5251 48.3125 30.5848C48.188 30.651 48.4871 30.8369 49.0789 31.0613C51.3752 31.9319 54.9327 34.0452 57.4077 36.0091C59.0504 37.3124 61.1665 39.2672 61.0847 39.4057C61.0407 39.4799 60.6279 39.6288 60.1674 39.7366L59.33 39.9325L58.4694 39.3351C57.996 39.0066 57.5732 38.7748 57.5299 38.8203C57.4865 38.8656 57.5964 39.1164 57.7742 39.3777C57.952 39.6388 58.0975 39.9058 58.0975 39.9711C58.0975 40.1561 54.4903 39.9298 53.0389 39.6537C50.0374 39.0823 50.2559 39.1818 49.4359 38.0141L48.6946 36.9583L48.3336 37.7013C48.0074 38.3726 47.932 38.4348 47.5547 38.3446C46.9448 38.1991 40.9552 36.1089 40.259 35.7988C39.7015 35.5504 39.6708 35.5012 39.7511 34.9837C39.7981 34.6806 39.7892 34.4335 39.7312 34.4343C39.6733 34.4349 39.3806 34.6787 39.081 34.976C38.6479 35.4052 38.4459 35.8251 38.0982 37.0183C37.8575 37.8445 37.5854 38.5736 37.4936 38.6383C37.2622 38.8014 35.6863 38.7865 35.4332 38.6188C35.2763 38.5147 35.2392 38.108 35.2799 36.9379C35.3095 36.089 35.2927 35.3945 35.2425 35.3945C35.1924 35.3947 35.0304 35.5343 34.8825 35.7052C34.6697 35.9511 34.535 35.9846 34.2356 35.8656C33.6471 35.6316 33.5445 35.6843 33.7988 36.0901C34.0292 36.4579 34.0061 36.4883 32.622 37.6457C31.8456 38.2949 30.4481 39.3844 29.5163 40.0666L27.8225 41.307L27.4199 40.9046L27.0174 40.5024L26.4625 41.54C25.9266 42.5421 25.8562 42.6053 24.4124 43.3788C22.6486 44.3237 21.2314 44.9392 20.1204 45.2431L19.3164 45.4627L19.4148 45.0374C19.4687 44.8032 19.5702 44.4497 19.6401 44.2513C19.8621 43.6208 19.5385 43.8611 18.9383 44.7722L18.3577 45.6539H17.3774H16.3971L16.7944 44.8341C19.0256 40.2297 22.2488 36.0969 25.2392 34.0064C26.5054 33.1212 28.77 32.0283 29.3379 32.0283C29.4602 32.0283 29.669 31.9847 29.8019 31.9312C30.0195 31.8439 30.0175 31.7882 29.7814 31.3703C29.4629 30.8065 29.3821 30.7975 29.072 31.2923L28.8301 31.6786L27.7897 31.4318C26.7266 31.1797 22.2215 29.8368 22.1513 29.7513C22.13 29.7253 21.9753 29.4205 21.8076 29.0741L21.5027 28.4444L19.834 28.4329C18.1811 28.4217 18.1234 28.4081 13.7964 27.0098C8.16841 25.191 4.60637 23.7126 4.20122 23.0271C4.14772 22.9366 4.36018 22.5877 4.67336 22.2521L5.24299 21.6422L3.95703 21.7261L2.67107 21.8099L1.64216 20.6478C1.07621 20.0088 0.613281 19.4326 0.613281 19.3677C0.613281 19.2117 2.81102 18.9084 5.28867 18.7221C7.59723 18.5486 10.4922 18.5547 13.0961 18.7386ZM42.8686 23.5002C44.1595 22.3987 45.5774 21.5817 46.9617 21.1415C48.3706 20.6935 48.9292 20.7363 47.6737 21.196C46.4196 21.6553 45.5825 22.1013 44.2246 23.0331C43.1629 23.7618 40.9019 25.985 39.8039 27.3796C39.3149 28.0008 39.2785 28.0238 39.5414 27.5452C40.1558 26.4275 41.846 24.3725 42.8686 23.5002ZM40.8315 27.0939C41.2324 26.4157 44.5955 24.5229 46.3224 24.0035C47.5406 23.6372 50.6048 23.4445 51.4293 23.6823C51.7863 23.7853 51.628 23.8193 50.7213 23.834C47.6486 23.8838 43.8862 25.112 41.2436 26.9278C40.9531 27.1273 40.7676 27.2021 40.8315 27.0939ZM23.9902 24.0528C22.4593 23.9738 22.1395 23.9224 22.6106 23.8305C23.6203 23.6338 26.8318 23.7022 27.8991 23.9431C29.3559 24.2718 31.1972 24.9355 32.4212 25.573C33.6594 26.218 35.8753 27.7182 36.1913 28.1254C36.4419 28.4481 36.4407 28.4475 35.1087 27.5619C33.1331 26.2481 29.8864 24.9437 27.286 24.4186C26.5693 24.274 25.0862 24.1095 23.9902 24.0528ZM22.4573 27.5777C22.6918 27.3352 24.4849 26.7685 25.5998 26.5847C27.8688 26.2102 30.5296 26.5561 33.2341 27.5769C33.9342 27.8411 34.4779 28.0876 34.4425 28.1247C34.407 28.1617 33.7653 28.0048 33.0164 27.7759C29.5748 26.7243 25.7849 26.6756 22.6106 27.6428C22.4079 27.7044 22.356 27.6825 22.4573 27.5777ZM40.9552 30.8691C39.909 31.0716 40.1278 30.8379 41.2047 30.6028C43.1449 30.1789 45.6826 30.4684 47.1755 31.2835C47.963 31.7136 47.7634 31.7084 46.5623 31.2678C45.688 30.9471 45.0587 30.8443 43.6115 30.7857C42.5998 30.7448 41.4045 30.7823 40.9552 30.8691ZM31.2872 31.4804C31.5065 31.349 32.1274 31.1666 32.6668 31.075C33.2062 30.9835 33.751 30.9178 33.8775 30.9294C34.7787 31.0101 36.7604 31.5278 36.8685 31.7107C36.9097 31.7805 36.5812 31.7422 36.1385 31.6255C34.4227 31.1733 33.0255 31.1779 31.1949 31.6416C30.9771 31.6969 31.0039 31.6501 31.2872 31.4804ZM47.2166 33.9795C45.9501 32.9121 44.3497 32.1005 42.5881 31.6322C41.6014 31.3698 41.325 31.251 41.6953 31.2483C42.3047 31.2439 44.0758 31.7081 44.9911 32.1122C45.8623 32.4967 47.4396 33.7034 47.8405 34.2922C48.1304 34.7179 48.0384 34.6718 47.2166 33.9795ZM30.6334 33.7591C31.1425 33.1643 32.5892 32.3981 33.7385 32.1148C34.2786 31.9817 35.031 31.8795 35.4104 31.8877C36.0386 31.9013 36 31.9218 34.9786 32.1169C33.266 32.444 31.9334 32.9954 30.6584 33.9044L30.2751 34.1778L30.6334 33.7591Z" fill="#F5DEB3"/>
<path d="M48.2978 54.4282C47.2425 54.4282 46.3144 54.2483 45.5134 53.8884C44.72 53.5287 44.0539 53.0517 43.515 52.4573C42.976 51.855 42.5719 51.1668 42.3024 50.3925C42.0329 49.6104 41.8982 48.801 41.8982 47.9641C41.8982 47.1273 42.0293 46.3334 42.2912 45.5826C42.5532 44.8241 42.9199 44.1475 43.3914 43.5531C43.8631 42.9508 44.4281 42.4503 45.0868 42.0515C45.7455 41.6448 46.4715 41.371 47.2649 41.2303C47.3846 41.2224 47.4446 41.195 47.4446 41.1481C47.4446 41.0621 47.4334 40.9839 47.4109 40.9136C47.3958 40.8353 47.3885 40.7688 47.3885 40.714C47.3885 40.628 47.4033 40.5694 47.4334 40.5381C47.4633 40.5069 47.497 40.4912 47.5344 40.4912C48.964 40.4912 50.1804 40.6632 51.1833 41.0074C52.1862 41.3437 53.0022 41.8051 53.6308 42.3917C54.2596 42.9782 54.7161 43.6705 55.0006 44.4682C55.285 45.2658 55.4272 46.1223 55.4272 47.0373C55.4272 48.2026 55.24 49.2429 54.8659 50.1578C54.4917 51.0729 53.9789 51.8472 53.3277 52.4807C52.6841 53.1141 51.928 53.5951 51.0598 53.9237C50.1991 54.26 49.2784 54.4282 48.2978 54.4282ZM46.2207 47.835C46.2207 48.2574 46.2619 48.6759 46.3443 49.0903C46.4341 49.5048 46.5763 49.8802 46.7709 50.2166C46.9731 50.5528 47.235 50.8265 47.5568 51.0378C47.8787 51.2411 48.2791 51.3428 48.7581 51.3428C49.1024 51.3271 49.4018 51.2489 49.6564 51.1081C49.9184 50.9595 50.1428 50.7718 50.33 50.545C50.5171 50.3105 50.6706 50.0484 50.7903 49.759C50.9175 49.4697 51.0149 49.1724 51.0822 48.8675C51.1571 48.5547 51.2094 48.2495 51.2395 47.9524C51.2693 47.6551 51.2844 47.3854 51.2844 47.1429C51.2844 46.7362 51.2244 46.3374 51.1047 45.9462C50.9923 45.5552 50.824 45.2112 50.5995 44.9139C50.3749 44.6168 50.0942 44.3781 49.7574 44.1983C49.428 44.0107 49.0463 43.9168 48.6122 43.9168C48.1631 43.9168 47.7852 44.0575 47.4783 44.3391C47.1714 44.6128 46.9243 44.953 46.7373 45.3597C46.5576 45.7664 46.4266 46.1966 46.3443 46.6502C46.2619 47.096 46.2207 47.4909 46.2207 47.835ZM68.7429 52.3634C68.7205 52.6214 68.6904 52.8013 68.653 52.903C68.6156 52.9969 68.5333 53.0595 68.4061 53.0908C67.7699 53.2785 67.1037 53.47 66.4076 53.6656C65.719 53.8533 65.0492 54.1035 64.398 54.4163C64.3754 54.4242 64.3417 54.4282 64.2968 54.4282C64.237 54.4282 64.1996 54.4125 64.1846 54.3813C64.1771 54.3499 64.1734 54.3148 64.1734 54.2756C64.1734 54.26 64.1734 54.2326 64.1734 54.1935C64.1809 54.1545 64.1921 54.0801 64.207 53.9706C64.222 53.8689 64.2407 53.7242 64.2632 53.5365C64.2931 53.3488 64.3305 53.0986 64.3754 52.7858C63.5371 53.3566 62.7924 53.7712 62.1412 54.0292C61.4976 54.2953 60.9249 54.4282 60.4234 54.4282C59.1735 54.4282 58.2602 54.1152 57.684 53.4896C57.1151 52.8561 56.8306 51.9136 56.8306 50.6624C56.8306 50.4356 56.8344 50.2048 56.8419 49.9703C56.8493 49.7278 56.8718 49.4814 56.9092 49.2311C56.9916 48.3083 57.0627 47.5183 57.1226 46.8613C57.1824 46.1966 57.2311 45.6334 57.2685 45.1721C57.306 44.7107 57.3358 44.3352 57.3584 44.0458C57.3883 43.7487 57.4108 43.5023 57.4257 43.3067C57.4482 43.1112 57.4631 42.9508 57.4706 42.8257C57.4856 42.6928 57.5005 42.5637 57.5155 42.4386C57.5454 42.1884 57.5716 42.0124 57.5941 41.9107C57.624 41.809 57.7102 41.7425 57.8523 41.7113C58.2041 41.6409 58.5372 41.5783 58.8516 41.5235C59.1735 41.4611 59.4877 41.3984 59.7946 41.3358C60.109 41.2655 60.4271 41.1912 60.749 41.113C61.0708 41.0347 61.4114 40.9408 61.7707 40.8314C61.7857 40.8314 61.8006 40.8314 61.8156 40.8314C61.8307 40.8236 61.8455 40.8197 61.8605 40.8197C61.9504 40.8197 61.9953 40.851 61.9953 40.9136V40.937C61.9652 41.2029 61.9392 41.4532 61.9167 41.6879C61.8943 41.9224 61.8717 42.1649 61.8494 42.4152C61.8268 42.6576 61.8006 42.9196 61.7707 43.2012C61.7482 43.4828 61.7183 43.8111 61.6809 44.1866C61.6435 44.5542 61.5986 44.9804 61.5461 45.4654C61.4937 45.9502 61.4301 46.5134 61.3553 47.1546C61.3104 47.6239 61.2655 48.0932 61.2206 48.5625C61.1756 49.0238 61.1533 49.454 61.1533 49.8529C61.1533 50.0718 61.1681 50.2752 61.1982 50.463C61.2281 50.6428 61.2805 50.7992 61.3553 50.9321C61.4376 51.0574 61.5425 51.1551 61.6697 51.2254C61.7969 51.2959 61.9616 51.3311 62.1636 51.3311C62.3209 51.3311 62.5341 51.2959 62.8036 51.2254C63.0731 51.1472 63.3426 51.0183 63.6121 50.8382C63.8814 50.6507 64.1173 50.4082 64.3193 50.1109C64.5289 49.8059 64.6486 49.4228 64.6787 48.9613C64.7309 48.1871 64.7758 47.5417 64.8134 47.0256C64.8582 46.5015 64.8957 46.0636 64.9256 45.7117C64.9555 45.352 64.9817 45.0509 65.0042 44.8084C65.0266 44.5659 65.0453 44.3352 65.0603 44.1162C65.0827 43.8894 65.1014 43.6508 65.1165 43.4006C65.1315 43.1426 65.1463 42.8219 65.1614 42.4386C65.1839 42.1806 65.21 42.0045 65.24 41.9107C65.2774 41.809 65.3634 41.7425 65.4981 41.7113C66.1794 41.5705 66.8755 41.4297 67.5864 41.2889C68.2976 41.1404 68.9936 40.9527 69.6747 40.7259C69.7347 40.7259 69.7684 40.7376 69.7759 40.7609C69.7908 40.7766 69.7983 40.804 69.7983 40.8431L68.7429 52.3634ZM80.4305 44.2687C80.2734 44.253 80.0976 44.2375 79.9029 44.2218C79.7082 44.1983 79.5025 44.1866 79.2855 44.1866C78.956 44.1866 78.6193 44.2178 78.275 44.2804C77.9382 44.3352 77.6238 44.4486 77.3319 44.6206C77.0399 44.7927 76.7893 45.0313 76.5796 45.3363C76.37 45.6334 76.2353 46.0205 76.1755 46.4977C76.1231 47.0764 76.0782 47.5536 76.0407 47.9289C76.0107 48.2964 75.9883 48.6016 75.9733 48.8439C75.9584 49.0786 75.9434 49.2701 75.9284 49.4188C75.9209 49.5596 75.9135 49.6925 75.906 49.8176C75.906 49.849 75.8985 49.935 75.8835 50.0758C75.876 50.2166 75.8611 50.3808 75.8386 50.5685C75.8162 50.7562 75.7936 50.9595 75.7713 51.1786C75.7562 51.3976 75.7375 51.6008 75.7152 51.7885C75.6926 51.9763 75.6739 52.1404 75.6589 52.2812C75.6515 52.422 75.6477 52.508 75.6477 52.5394C75.6477 52.6019 75.6477 52.6567 75.6477 52.7036C75.6552 52.7427 75.6589 52.7818 75.6589 52.8209C75.6589 52.8835 75.629 52.9383 75.5692 52.9852C75.5168 53.0243 75.3932 53.0712 75.1987 53.126L72.2233 54.2405C72.141 54.2717 72.0325 54.3108 71.8977 54.3577C71.763 54.4047 71.6321 54.4282 71.5049 54.4282C71.4 54.4282 71.3065 54.4008 71.2242 54.346C71.1494 54.2912 71.1118 54.1974 71.1118 54.0644L72.0774 42.4386C72.0999 42.1806 72.1262 42.0045 72.156 41.9107C72.1934 41.809 72.2796 41.7425 72.4142 41.7113C73.0954 41.5705 73.799 41.4297 74.525 41.2889C75.251 41.1404 75.9546 40.9527 76.6358 40.7259C76.6956 40.7259 76.7293 40.7376 76.7368 40.7609C76.7517 40.7766 76.7592 40.804 76.7592 40.8431C76.7592 40.8588 76.7555 40.8822 76.748 40.9136C76.748 40.9448 76.7368 41.0151 76.7143 41.1247C76.6994 41.2343 76.6732 41.4023 76.6358 41.6291C76.6058 41.8482 76.5609 42.157 76.5011 42.556C76.8454 42.2744 77.2234 42.0162 77.635 41.7817C78.0541 41.5471 78.4733 41.3477 78.8924 41.1833C79.3117 41.0113 79.7158 40.8784 80.105 40.7845C80.4942 40.6828 80.8348 40.632 81.1266 40.632L80.4305 44.2687Z" fill="#F5DEB3"/>
<path d="M89.1101 38.0204C89.1101 36.2217 89.3046 34.501 89.6938 32.8587C90.0981 31.2006 90.6669 29.6599 91.4004 28.2364C92.1339 26.7974 93.0172 25.4991 94.0501 24.3417C95.098 23.1684 96.2656 22.1673 97.5531 21.3384C98.8404 20.4937 100.233 19.8446 101.73 19.3909C103.242 18.9373 104.828 18.7104 106.49 18.7104C107.807 18.7104 108.96 18.8043 109.948 18.992C110.951 19.1641 111.819 19.3909 112.553 19.6724C113.301 19.9383 113.923 20.2356 114.417 20.5641C114.926 20.8926 115.345 21.2055 115.674 21.5026C115.659 21.5026 115.652 21.5574 115.652 21.6668C115.652 21.9014 115.667 22.3316 115.696 22.9573C115.741 23.5829 115.786 24.279 115.831 25.0455C115.891 25.8119 115.936 26.594 115.966 27.3918C116.011 28.1738 116.033 28.8544 116.033 29.4331C116.033 29.5269 116.003 29.6363 115.943 29.7616C115.884 29.871 115.734 29.9258 115.494 29.9258C115.36 29.9258 115.195 29.9024 115 29.8555C114.686 29.7616 114.289 29.5503 113.81 29.2218C113.331 28.8778 112.77 28.5259 112.126 28.1661C111.497 27.7907 110.786 27.4622 109.993 27.1806C109.215 26.8834 108.361 26.7348 107.433 26.7348C106.206 26.7348 105.09 27.0085 104.087 27.556C103.084 28.0878 102.231 28.8387 101.527 29.8085C100.824 30.7627 100.278 31.9046 99.8883 33.234C99.4991 34.5479 99.3044 35.9792 99.3044 37.5278C99.3044 38.8886 99.4243 40.1634 99.6638 41.3522C99.9034 42.541 100.263 43.5733 100.742 44.4493C101.236 45.3096 101.842 45.99 102.56 46.4906C103.279 46.9911 104.125 47.2413 105.098 47.2413C106.041 47.2413 107.111 47.0302 108.309 46.6078L108.825 43.2996H104.536C104.866 41.407 105.15 39.9209 105.39 38.8417C105.629 37.7624 105.854 36.949 106.063 36.4016C106.273 35.8541 106.49 35.5099 106.715 35.3691C106.939 35.2283 107.201 35.158 107.5 35.158H119.312C119.656 35.158 119.903 35.1814 120.053 35.2283C120.217 35.2752 120.3 35.4396 120.3 35.7212C120.3 35.862 120.285 36.034 120.255 36.2372C120.225 36.425 120.187 36.6596 120.143 36.9412L119.02 40.8829C118.885 41.3834 118.773 41.7746 118.683 42.056C118.593 42.3221 118.481 42.5253 118.346 42.6661C118.211 42.7912 118.024 42.8695 117.785 42.9008C117.56 42.9165 117.231 42.9241 116.797 42.9241C116.557 42.9241 116.415 43.0259 116.37 43.2293C116.325 43.4325 116.288 43.6438 116.258 43.8628C116.168 44.551 116.078 45.2391 115.988 45.9274C115.899 46.6001 115.809 47.2336 115.719 47.828C115.644 48.4067 115.562 48.923 115.472 49.3766C115.382 49.8145 115.292 50.1351 115.202 50.3384C114.185 51.0111 113.256 51.6055 112.418 52.1216C111.595 52.6222 110.771 53.0367 109.948 53.3652C109.125 53.7092 108.256 53.9675 107.343 54.1395C106.43 54.3115 105.382 54.3975 104.2 54.3975C102.089 54.3975 100.113 53.9987 98.2716 53.2009C96.4302 52.4032 94.8285 51.2849 93.4663 49.8457C92.1189 48.391 91.0561 46.6626 90.2777 44.6604C89.4993 42.6583 89.1101 40.445 89.1101 38.0204ZM132.392 51.7228C132.369 51.9808 132.339 52.1607 132.302 52.2624C132.264 52.3563 132.182 52.4189 132.055 52.4501C131.419 52.6379 130.752 52.8294 130.056 53.025C129.368 53.2127 128.698 53.4629 128.047 53.7757C128.024 53.7836 127.99 53.7876 127.946 53.7876C127.886 53.7876 127.848 53.7719 127.833 53.7406C127.826 53.7092 127.822 53.6742 127.822 53.6349C127.822 53.6194 127.822 53.592 127.822 53.5529C127.829 53.5138 127.841 53.4395 127.856 53.33C127.871 53.2282 127.889 53.0836 127.912 52.8959C127.942 52.7082 127.979 52.458 128.024 52.1452C127.186 52.716 126.441 53.1305 125.79 53.3886C125.146 53.6546 124.574 53.7876 124.072 53.7876C122.822 53.7876 121.909 53.4746 121.333 52.849C120.764 52.2155 120.479 51.273 120.479 50.0217C120.479 49.7949 120.483 49.5641 120.491 49.3296C120.498 49.0871 120.521 48.8408 120.558 48.5904C120.64 47.6677 120.711 46.8777 120.771 46.2207C120.831 45.556 120.88 44.9928 120.917 44.5315C120.955 44.07 120.985 43.6946 121.007 43.4052C121.037 43.108 121.059 42.8617 121.074 42.6661C121.097 42.4705 121.112 42.3102 121.119 42.1851C121.134 42.0522 121.149 41.9231 121.164 41.798C121.194 41.5478 121.22 41.3718 121.243 41.27C121.273 41.1683 121.359 41.1019 121.501 41.0706C121.853 41.0003 122.186 40.9377 122.5 40.8829C122.822 40.8204 123.136 40.7578 123.443 40.6952C123.758 40.6249 124.076 40.5505 124.398 40.4724C124.72 40.3941 125.06 40.3002 125.419 40.1908C125.434 40.1908 125.449 40.1908 125.464 40.1908C125.479 40.1829 125.494 40.1791 125.509 40.1791C125.599 40.1791 125.644 40.2103 125.644 40.273V40.2963C125.614 40.5622 125.588 40.8126 125.565 41.0472C125.543 41.2817 125.52 41.5242 125.498 41.7746C125.476 42.0169 125.449 42.279 125.419 42.5606C125.397 42.8421 125.367 43.1705 125.33 43.5459C125.292 43.9135 125.247 44.3398 125.195 44.8248C125.142 45.3096 125.079 45.8728 125.004 46.514C124.959 46.9833 124.914 47.4526 124.869 47.9219C124.824 48.3832 124.802 48.8134 124.802 49.2122C124.802 49.4312 124.817 49.6346 124.847 49.8223C124.877 50.0022 124.929 50.1585 125.004 50.2915C125.086 50.4167 125.191 50.5144 125.318 50.5848C125.446 50.6552 125.61 50.6905 125.812 50.6905C125.97 50.6905 126.183 50.6552 126.452 50.5848C126.722 50.5066 126.991 50.3776 127.261 50.1976C127.53 50.0101 127.766 49.7676 127.968 49.4703C128.178 49.1653 128.297 48.7822 128.327 48.3207C128.38 47.5464 128.425 46.9011 128.462 46.385C128.507 45.8609 128.544 45.423 128.574 45.0711C128.604 44.7114 128.63 44.4102 128.653 44.1677C128.675 43.9252 128.694 43.6946 128.709 43.4756C128.731 43.2488 128.75 43.0102 128.765 42.76C128.78 42.5019 128.795 42.1813 128.81 41.798C128.832 41.5399 128.859 41.3639 128.889 41.27C128.926 41.1683 129.012 41.1019 129.147 41.0706C129.828 40.9298 130.524 40.789 131.235 40.6482C131.946 40.4998 132.642 40.312 133.323 40.0852C133.383 40.0852 133.417 40.0969 133.424 40.1203C133.439 40.136 133.447 40.1634 133.447 40.2025L132.392 51.7228ZM135.187 48.2033C135.285 47.1319 135.382 46.0722 135.479 45.0242C135.577 43.9762 135.663 42.9008 135.737 41.798C135.752 41.5399 135.775 41.3639 135.805 41.27C135.842 41.1683 135.928 41.1019 136.063 41.0706C136.699 40.9377 137.365 40.8007 138.061 40.6601C138.758 40.5115 139.431 40.3237 140.082 40.0969C140.105 40.0891 140.138 40.0852 140.183 40.0852C140.266 40.0852 140.307 40.1165 140.307 40.1791L139.296 51.6055C139.274 51.8636 139.248 52.0434 139.218 52.1452C139.188 52.239 139.106 52.3015 138.971 52.3329C138.335 52.5361 137.691 52.7629 137.04 53.0133C136.389 53.2635 135.7 53.5177 134.974 53.7757C134.951 53.7836 134.918 53.7876 134.873 53.7876C134.791 53.7876 134.749 53.7483 134.749 53.6702C134.749 53.6623 134.757 53.5568 134.772 53.3535C134.787 53.1501 134.805 52.888 134.828 52.5674C134.858 52.2467 134.888 51.887 134.918 51.4881C134.948 51.0893 134.978 50.6905 135.008 50.2915C135.045 49.8926 135.079 49.5095 135.109 49.1419C135.139 48.7743 135.165 48.4615 135.187 48.2033ZM136.029 38.8417C136.052 38.5053 136.067 38.2473 136.074 38.0674C136.089 37.8875 136.1 37.7546 136.108 37.6685C136.115 37.5747 136.119 37.5161 136.119 37.4925C136.119 37.4691 136.119 37.4534 136.119 37.4456C136.127 37.43 136.13 37.4065 136.13 37.3753C136.138 37.3362 136.145 37.2619 136.153 37.1523C136.16 37.0351 136.171 36.8669 136.186 36.6479C136.201 36.429 136.224 36.1278 136.254 35.7445C136.269 35.4865 136.291 35.3105 136.321 35.2166C136.359 35.1149 136.445 35.0484 136.58 35.0172C137.216 34.8843 137.882 34.7475 138.578 34.6067C139.274 34.458 139.948 34.2703 140.599 34.0435C140.621 34.0357 140.655 34.0318 140.7 34.0318C140.722 34.0787 140.752 34.11 140.79 34.1257L140.823 34.1491L140.576 37.3636C140.554 37.6216 140.524 37.8015 140.487 37.9032C140.457 38.0048 140.378 38.0674 140.251 38.0909C139.615 38.216 138.971 38.3528 138.32 38.5014C137.668 38.6501 136.98 38.7986 136.254 38.9472C136.231 38.9551 136.198 38.9589 136.153 38.9589C136.07 38.9589 136.029 38.9198 136.029 38.8417ZM150.266 46.5023C150.288 46.2521 150.311 45.99 150.333 45.7163C150.363 45.4426 150.397 45.1571 150.434 44.8598C150.262 44.3907 150.019 44.0112 149.704 43.722C149.39 43.4247 148.997 43.2762 148.525 43.2762C148.061 43.2762 147.668 43.4168 147.347 43.6984C147.025 43.9722 146.766 44.3124 146.572 44.719C146.377 45.1257 146.235 45.556 146.145 46.0096C146.063 46.4553 146.022 46.8503 146.022 47.1944C146.022 47.6167 146.044 48.0353 146.089 48.4496C146.141 48.8642 146.22 49.2396 146.325 49.576C146.437 49.9122 146.583 50.1859 146.763 50.3972C146.942 50.6004 147.167 50.7022 147.436 50.7022C148.095 50.6786 148.63 50.5223 149.042 50.2329C149.454 49.9436 149.783 49.5915 150.03 49.177L150.266 46.5023ZM154.184 51.9927C154.184 52.0082 154.181 52.0278 154.173 52.0513C154.173 52.0668 154.173 52.0825 154.173 52.0982C154.173 52.1373 154.173 52.1685 154.173 52.1921C154.181 52.2155 154.184 52.239 154.184 52.2624C154.184 52.3329 154.158 52.3915 154.105 52.4384C154.061 52.4775 153.937 52.5245 153.734 52.5792L150.726 53.5999C150.644 53.6311 150.535 53.6702 150.4 53.7171C150.266 53.764 150.135 53.7876 150.007 53.7876C149.903 53.7876 149.809 53.7602 149.727 53.7054C149.652 53.6506 149.614 53.5489 149.614 53.4004C149.614 53.2596 149.614 53.1462 149.614 53.0602C149.622 52.9741 149.626 52.8959 149.626 52.8256C149.633 52.7473 149.641 52.6652 149.648 52.5792C149.663 52.4932 149.678 52.3798 149.693 52.239C149.132 52.7082 148.552 53.0836 147.953 53.3652C147.361 53.6468 146.736 53.7876 146.078 53.7876C145.359 53.7876 144.719 53.6077 144.158 53.2478C143.604 52.8959 143.136 52.4227 142.755 51.8283C142.373 51.2261 142.081 50.5418 141.879 49.7754C141.684 49.0011 141.587 48.1954 141.587 47.3587C141.587 46.2716 141.755 45.2822 142.092 44.3907C142.436 43.4912 142.9 42.7247 143.484 42.0913C144.068 41.4499 144.749 40.9572 145.528 40.6132C146.306 40.2611 147.133 40.0852 148.009 40.0852C148.48 40.0852 148.93 40.2142 149.356 40.4724C149.79 40.7304 150.198 41.0628 150.58 41.4695C150.602 41.0863 150.629 40.6718 150.659 40.226C150.689 39.7724 150.718 39.3148 150.748 38.8533C150.778 38.3842 150.808 37.9227 150.838 37.4691C150.868 37.0155 150.894 36.601 150.917 36.2255C150.917 36.1552 150.939 36.1005 150.984 36.0614C151.037 36.0144 151.164 35.9635 151.366 35.9089L154.521 35.1228C154.604 35.1072 154.711 35.072 154.846 35.0172C154.981 34.9624 155.113 34.935 155.24 34.935C155.336 34.935 155.427 34.9586 155.508 35.0055C155.599 35.0524 155.643 35.1423 155.643 35.2752C155.643 35.2909 155.64 35.3262 155.632 35.381C155.632 35.4279 155.632 35.4591 155.632 35.4748L154.184 51.9927ZM163.39 40.0852C164.102 40.0852 164.745 40.226 165.322 40.5075C165.906 40.7812 166.402 41.1411 166.815 41.5869C167.233 42.0248 167.555 42.5175 167.781 43.0649C168.004 43.6124 168.118 44.1599 168.118 44.7074C168.118 45.1922 167.975 45.681 167.69 46.1737C167.407 46.6587 167.005 47.0967 166.49 47.4878C165.981 47.8788 165.366 48.1954 164.647 48.438C163.93 48.6805 163.14 48.8017 162.279 48.8017C161.83 48.8017 161.358 48.7548 160.864 48.6609C160.895 48.9971 160.988 49.2865 161.145 49.529C161.302 49.7714 161.5 49.9708 161.739 50.1273C161.98 50.2838 162.248 50.401 162.549 50.4792C162.855 50.5497 163.17 50.5848 163.491 50.5848C163.85 50.5848 164.195 50.5535 164.525 50.4911C164.862 50.4206 165.184 50.3307 165.49 50.2212C165.797 50.1116 166.093 49.9905 166.376 49.8574C166.662 49.7245 166.931 49.5915 167.186 49.4586C167.253 49.443 167.308 49.4312 167.354 49.4233C167.407 49.4078 167.454 49.3999 167.5 49.3999C167.5 49.3999 167.495 49.4626 167.488 49.5877C167.488 49.7128 167.488 49.8888 167.488 50.1156C167.488 50.3424 167.485 50.6161 167.477 50.9368C167.477 51.2575 167.474 51.6132 167.466 52.0044C167.488 52.0434 167.503 52.0825 167.511 52.1216C167.518 52.1607 167.521 52.1921 167.521 52.2155C167.521 52.3093 167.44 52.411 167.275 52.5204C167.111 52.63 166.893 52.7434 166.623 52.8607C166.363 52.9781 166.059 53.0915 165.714 53.2009C165.377 53.3104 165.034 53.4081 164.681 53.4943C164.33 53.588 163.99 53.6585 163.66 53.7054C163.331 53.7602 163.042 53.7876 162.796 53.7876C161.988 53.7876 161.201 53.6389 160.438 53.3417C159.682 53.0524 159.008 52.6338 158.416 52.0864C157.834 51.5391 157.364 50.8742 157.013 50.0921C156.661 49.3099 156.486 48.4301 156.486 47.4526C156.486 46.4279 156.655 45.4699 156.99 44.5783C157.328 43.6789 157.8 42.8968 158.405 42.232C159.02 41.5673 159.75 41.0432 160.594 40.6601C161.44 40.2768 162.372 40.0852 163.39 40.0852ZM163.255 43.2057C162.949 43.2057 162.664 43.2762 162.403 43.4168C162.149 43.5499 161.913 43.7454 161.695 44.0036C161.485 44.2537 161.302 44.5587 161.145 44.9186C160.988 45.2705 160.861 45.6615 160.763 46.0917C161.534 45.9509 162.175 45.8023 162.684 45.646C163.193 45.4895 163.6 45.333 163.907 45.1767C164.213 45.0123 164.431 44.852 164.558 44.6957C164.686 44.5315 164.748 44.375 164.748 44.2264C164.748 44.0856 164.696 43.9526 164.592 43.8275C164.494 43.7024 164.371 43.5929 164.221 43.499C164.071 43.4052 163.907 43.3348 163.728 43.2879C163.556 43.2331 163.398 43.2057 163.255 43.2057Z" fill="#F5DEB3"/>
</g>
<defs>
<filter id="filter0_i_313_2" x="0.613281" y="12.974" width="171.505" height="45.4951" filterUnits="userSpaceOnUse" color-interpolation-filters="sRGB">
<feFlood flood-opacity="0" result="BackgroundImageFix"/>
<feBlend mode="normal" in="SourceGraphic" in2="BackgroundImageFix" result="shape"/>
<feColorMatrix in="SourceAlpha" type="matrix" values="0 0 0 0 0 0 0 0 0 0 0 0 0 0 0 0 0 0 127 0" result="hardAlpha"/>
<feOffset dx="4" dy="4"/>
<feGaussianBlur stdDeviation="4"/>
<feComposite in2="hardAlpha" operator="arithmetic" k2="-1" k3="1"/>
<feColorMatrix type="matrix" values="0 0 0 0 0 0 0 0 0 0 0 0 0 0 0 0 0 0 0.15 0"/>
<feBlend mode="normal" in2="shape" result="effect1_innerShadow_313_2"/>
</filter>
</defs>
</svg>
