<svg width="1109" height="462" viewBox="0 0 1109 462" fill="none" xmlns="http://www.w3.org/2000/svg">
<g filter="url(#filter0_d_1050_91)">
<path fill-rule="evenodd" clip-rule="evenodd" d="M327.5 82.9518C333 83.9906 338.07 84.9594 338.766 85.1045C339.563 85.2717 338.354 87.8677 335.502 92.1141C331.483 98.0989 330.463 98.9866 326.454 99.9974C321.971 101.127 321.948 101.154 323.515 103.547C325.039 105.875 324.932 106.146 320.413 111.441C317.728 114.586 314.617 117.164 313.116 117.486C311.677 117.796 307.479 118.922 303.787 119.991C299.552 121.216 295.675 121.72 293.287 121.352C289.875 120.828 289.341 121.057 287.896 123.662C287.015 125.252 283.19 128.619 279.396 131.143C267.557 139.02 253.861 154.876 250.489 164.609L249.164 168.436L247.892 165.433C247.096 163.554 246.627 157.941 246.639 150.422C246.695 115.487 263.553 89.447 290.644 82.4524C298.833 80.3387 314.804 80.5549 327.5 82.9518ZM157.5 92.3423C190.061 98.3291 222.073 121.711 236.567 150.093C239.486 155.81 241.168 162.709 239.842 163.529C237.937 164.708 227.835 158.763 225.76 155.242C224.52 153.141 223.198 152.017 222.349 152.343C220.291 153.133 197.43 139.166 194.509 135.333C192.273 132.398 191.682 132.138 189.009 132.905C186.563 133.607 184.374 133.053 177.07 129.882C168.976 126.369 149.884 120.018 142.638 118.429C139.925 117.834 139.863 117.704 141.448 115.952C143.052 114.178 142.876 114.075 137.131 113.407C133.837 113.025 130.294 112.981 129.257 113.31C127.368 113.91 113.168 108.588 103.566 103.68L98.6311 101.159L102.066 100.082C132.535 90.5328 141.134 89.3329 157.5 92.3423ZM237.75 244.74C245.847 245.125 246.106 245.474 243.979 253.14C242.992 256.696 236.706 263.494 232.144 265.937C230.01 267.079 230 267.033 230 255.54C230 249.191 230.113 244.085 230.25 244.195C230.387 244.304 233.762 244.549 237.75 244.74ZM244.418 269.237C244.793 273.244 245.333 277.311 245.618 278.273C246.077 279.831 245.311 280.025 238.698 280.025H231.262L230.642 276.272C229.682 270.461 229.736 270.337 234.25 267.799C236.587 266.486 239.678 264.633 241.118 263.682L243.736 261.953L244.418 269.237ZM247.415 286.355C248.157 290.067 245.527 293.836 239.327 297.946C236.758 299.648 234.324 301.041 233.916 301.041C233.186 301.041 232.66 298.338 231.483 288.532L230.882 283.528L238.861 283.5L246.839 283.474L247.415 286.355ZM250 294.965C250 295.668 251.8 300.087 254 304.785C256.2 309.484 258 313.45 258 313.6C258 314.463 240.921 315.094 238 314.339C234.778 313.506 234.46 313.082 234 308.99L233.5 304.544L239.5 301.191C242.8 299.346 246.512 296.903 247.75 295.762C249.16 294.462 250 294.164 250 294.965ZM261.904 319.744C262.769 321.646 262.151 322.711 257.2 327.845C252.438 332.783 242.163 340.029 239.874 340.064C239.53 340.069 238.488 335.906 237.559 330.815C236.63 325.724 235.695 320.657 235.48 319.556C235.105 317.638 235.625 317.555 247.998 317.555C260.307 317.555 260.954 317.657 261.904 319.744Z" fill="#F5DEB3"/>
<path fill-rule="evenodd" clip-rule="evenodd" d="M85.4321 116.99C135.302 120.358 185.183 135.475 224.18 159.039C238.484 167.683 248.96 175.24 248.998 176.943C249.05 179.341 250.966 175.942 250.985 173.417C251.011 169.901 258.227 158.905 265.834 150.785C282.855 132.618 302.842 124.305 332.171 123.19C353.66 122.374 375.201 125.565 397.894 132.927C409.603 136.725 423 142.006 423 142.823C423 143.169 420.899 145.854 418.332 148.791C413.37 154.468 413.37 154.468 405 152.377C403.625 152.034 396.775 158.634 402 161.5L399.109 164.335L389.348 169.059C383.98 171.657 374.027 175.68 367.231 177.995C354.697 182.268 350.728 182.64 342.285 180.334C340.478 179.841 339.767 180.367 338.42 183.194C336.803 186.586 336.558 186.695 326.635 188.465C321.061 189.459 315.9 190.576 315.167 190.949C314.355 191.362 316.306 192.523 320.167 193.924C335.147 199.359 358.354 212.553 374.5 224.814C385.216 232.951 399.021 245.155 398.487 246.02C398.2 246.483 395.507 247.413 392.503 248.086L387.04 249.309L381.426 245.579C378.338 243.528 375.58 242.081 375.297 242.365C375.014 242.648 375.731 244.214 376.891 245.845C378.051 247.475 379 249.142 379 249.55C379 250.705 355.468 249.292 346 247.568C326.42 244.001 327.845 244.622 322.496 237.332L317.66 230.74L315.305 235.379C313.177 239.57 312.685 239.958 310.224 239.395C306.245 238.487 267.172 225.437 262.63 223.501C258.993 221.95 258.793 221.643 259.317 218.412C259.623 216.52 259.565 214.977 259.187 214.982C258.809 214.986 256.9 216.508 254.945 218.364C252.12 221.044 250.802 223.665 248.534 231.115C246.964 236.273 245.189 240.825 244.59 241.229C243.08 242.247 232.8 242.154 231.149 241.107C230.125 240.457 229.883 237.918 230.149 230.613C230.342 225.313 230.232 220.977 229.905 220.977C229.578 220.978 228.521 221.85 227.556 222.917C226.168 224.452 225.289 224.661 223.336 223.918C219.497 222.457 218.828 222.786 220.487 225.32C221.99 227.616 221.839 227.806 212.81 235.032C207.745 239.085 198.628 245.887 192.55 250.146L181.5 257.89L178.874 255.378L176.248 252.867L172.628 259.345C169.132 265.601 168.673 265.996 159.254 270.825C147.748 276.724 138.503 280.567 131.255 282.464L126.01 283.835L126.652 281.18C127.004 279.718 127.666 277.511 128.122 276.272C129.57 272.336 127.459 273.836 123.544 279.524L119.756 285.029H113.361H106.966L109.558 279.911C124.113 251.164 145.14 225.362 164.648 212.311C172.908 206.784 187.681 199.961 191.386 199.961C192.184 199.961 193.546 199.689 194.413 199.355C195.832 198.81 195.819 198.462 194.279 195.853C192.201 192.333 191.674 192.277 189.651 195.366L188.073 197.778L181.286 196.237C174.351 194.663 144.962 186.279 144.504 185.745C144.365 185.583 143.356 183.68 142.262 181.517L140.273 177.586L129.387 177.514C118.604 177.444 118.228 177.359 90.0002 168.629C53.2861 157.274 30.049 148.044 27.406 143.764C27.057 143.199 28.443 141.021 30.486 138.926L34.202 135.118L25.813 135.642L17.424 136.165L10.7119 128.91C7.01991 124.92 3.99997 121.323 3.99997 120.918C3.99997 119.944 18.337 118.05 34.5 116.887C49.56 115.804 68.4451 115.842 85.4321 116.99ZM279.654 146.718C288.075 139.841 297.325 134.74 306.355 131.992C315.546 129.195 319.19 129.462 311 132.332C302.819 135.2 297.358 137.984 288.5 143.802C281.574 148.351 266.824 162.231 259.661 170.938C256.471 174.816 256.234 174.96 257.949 171.972C261.957 164.994 272.983 152.164 279.654 146.718ZM266.365 169.154C268.98 164.92 290.919 153.103 302.185 149.86C310.132 147.573 330.121 146.37 335.5 147.855C337.829 148.498 336.796 148.71 330.881 148.802C310.836 149.113 286.292 156.781 269.053 168.117C267.158 169.363 265.948 169.83 266.365 169.154ZM156.5 150.168C146.513 149.675 144.427 149.354 147.5 148.78C154.087 147.552 175.037 147.979 182 149.483C191.503 151.535 203.515 155.679 211.5 159.659C219.577 163.686 234.033 173.052 236.094 175.594C237.729 177.609 237.721 177.605 229.032 172.076C216.144 163.874 194.964 155.73 178 152.452C173.325 151.549 163.65 150.522 156.5 150.168ZM146.5 172.175C148.03 170.661 159.727 167.123 167 165.975C181.802 163.637 199.16 165.797 216.803 172.17C221.37 173.819 224.917 175.358 224.686 175.59C224.454 175.821 220.268 174.841 215.383 173.412C192.931 166.847 168.208 166.543 147.5 172.581C146.178 172.966 145.839 172.829 146.5 172.175ZM267.172 192.724C260.347 193.988 261.774 192.529 268.799 191.061C281.456 188.415 298.011 190.222 307.75 195.311C312.887 197.996 311.585 197.964 303.75 195.213C298.046 193.211 293.941 192.569 284.5 192.203C277.9 191.948 270.103 192.182 267.172 192.724ZM204.102 196.54C205.533 195.72 209.583 194.581 213.102 194.009C216.621 193.438 220.175 193.028 221 193.1C226.879 193.604 239.807 196.836 240.512 197.978C240.781 198.414 238.638 198.175 235.75 197.446C224.557 194.623 215.442 194.652 203.5 197.547C202.079 197.892 202.254 197.6 204.102 196.54ZM308.018 212.143C299.756 205.479 289.316 200.412 277.824 197.488C271.387 195.85 269.584 195.108 272 195.091C275.975 195.064 287.529 197.962 293.5 200.485C299.183 202.885 309.473 210.419 312.088 214.095C313.979 216.753 313.379 216.465 308.018 212.143ZM199.837 210.767C203.158 207.053 212.596 202.27 220.093 200.501C223.617 199.67 228.525 199.032 231 199.083C235.098 199.168 234.846 199.296 228.183 200.514C217.011 202.556 208.318 205.999 200 211.674L197.5 213.381L199.837 210.767Z" fill="#F5DEB3"/>
<path d="M315.072 339.809C308.188 339.809 302.133 338.686 296.908 336.439C291.732 334.193 287.387 331.215 283.871 327.504C280.355 323.744 277.719 319.447 275.961 314.613C274.203 309.73 273.324 304.677 273.324 299.452C273.324 294.228 274.179 289.271 275.888 284.584C277.597 279.848 279.989 275.624 283.065 271.913C286.142 268.153 289.828 265.028 294.125 262.538C298.422 259.999 303.158 258.29 308.334 257.411C309.115 257.362 309.506 257.191 309.506 256.898C309.506 256.361 309.433 255.873 309.286 255.434C309.188 254.945 309.14 254.53 309.14 254.188C309.14 253.651 309.237 253.285 309.433 253.09C309.628 252.895 309.848 252.797 310.092 252.797C319.418 252.797 327.353 253.871 333.896 256.02C340.438 258.119 345.761 261 349.862 264.662C353.964 268.324 356.942 272.646 358.798 277.626C360.653 282.606 361.581 287.953 361.581 293.666C361.581 300.941 360.36 307.436 357.919 313.148C355.478 318.861 352.133 323.695 347.885 327.65C343.686 331.605 338.754 334.608 333.09 336.659C327.475 338.759 321.469 339.809 315.072 339.809ZM301.522 298.646C301.522 301.283 301.791 303.896 302.328 306.483C302.914 309.071 303.842 311.415 305.111 313.515C306.43 315.614 308.139 317.323 310.238 318.642C312.338 319.911 314.95 320.546 318.075 320.546C320.321 320.448 322.274 319.96 323.935 319.081C325.644 318.153 327.108 316.981 328.329 315.565C329.55 314.101 330.551 312.465 331.332 310.658C332.162 308.852 332.797 306.996 333.236 305.092C333.725 303.139 334.066 301.234 334.262 299.379C334.457 297.523 334.555 295.839 334.555 294.325C334.555 291.786 334.164 289.296 333.383 286.854C332.65 284.413 331.552 282.265 330.087 280.409C328.622 278.554 326.791 277.064 324.594 275.941C322.445 274.77 319.955 274.184 317.123 274.184C314.193 274.184 311.728 275.062 309.726 276.82C307.724 278.529 306.112 280.653 304.892 283.192C303.72 285.731 302.865 288.417 302.328 291.249C301.791 294.032 301.522 296.498 301.522 298.646ZM448.446 326.918C448.3 328.529 448.104 329.652 447.86 330.287C447.616 330.873 447.079 331.264 446.249 331.459C442.099 332.631 437.753 333.827 433.212 335.048C428.72 336.22 424.35 337.782 420.102 339.735C419.955 339.784 419.735 339.809 419.442 339.809C419.052 339.809 418.808 339.711 418.71 339.516C418.661 339.32 418.637 339.101 418.637 338.856C418.637 338.759 418.637 338.588 418.637 338.344C418.686 338.1 418.759 337.636 418.856 336.952C418.954 336.317 419.076 335.414 419.223 334.242C419.418 333.07 419.662 331.508 419.955 329.555C414.486 333.119 409.628 335.707 405.38 337.318C401.181 338.979 397.445 339.809 394.174 339.809C386.02 339.809 380.062 337.855 376.303 333.949C372.592 329.994 370.736 324.11 370.736 316.298C370.736 314.882 370.761 313.441 370.81 311.977C370.858 310.463 371.005 308.925 371.249 307.362C371.786 301.601 372.25 296.669 372.641 292.567C373.031 288.417 373.349 284.901 373.593 282.021C373.837 279.14 374.032 276.796 374.179 274.989C374.374 273.134 374.521 271.596 374.618 270.375C374.765 269.154 374.862 268.153 374.911 267.372C375.009 266.542 375.106 265.736 375.204 264.955C375.399 263.393 375.57 262.294 375.717 261.659C375.912 261.024 376.474 260.609 377.401 260.414C379.696 259.975 381.869 259.584 383.92 259.242C386.02 258.852 388.07 258.461 390.072 258.07C392.123 257.631 394.198 257.167 396.298 256.679C398.397 256.19 400.619 255.604 402.963 254.921C403.061 254.921 403.158 254.921 403.256 254.921C403.354 254.872 403.451 254.848 403.549 254.848C404.135 254.848 404.428 255.043 404.428 255.434V255.58C404.232 257.24 404.062 258.803 403.915 260.268C403.769 261.732 403.622 263.246 403.476 264.809C403.329 266.322 403.158 267.958 402.963 269.716C402.816 271.474 402.621 273.524 402.377 275.868C402.133 278.163 401.84 280.824 401.498 283.852C401.156 286.879 400.741 290.395 400.253 294.398C399.96 297.328 399.667 300.258 399.374 303.188C399.081 306.068 398.935 308.754 398.935 311.244C398.935 312.611 399.032 313.881 399.228 315.053C399.423 316.176 399.765 317.152 400.253 317.982C400.79 318.764 401.474 319.374 402.304 319.813C403.134 320.253 404.208 320.473 405.526 320.473C406.552 320.473 407.943 320.253 409.701 319.813C411.459 319.325 413.217 318.52 414.975 317.396C416.732 316.225 418.271 314.711 419.589 312.855C420.956 310.951 421.737 308.559 421.933 305.678C422.274 300.844 422.567 296.815 422.812 293.593C423.104 290.321 423.349 287.587 423.544 285.39C423.739 283.144 423.91 281.264 424.057 279.75C424.203 278.236 424.325 276.796 424.423 275.429C424.569 274.013 424.691 272.523 424.789 270.961C424.887 269.35 424.984 267.348 425.082 264.955C425.229 263.344 425.399 262.245 425.595 261.659C425.839 261.024 426.4 260.609 427.279 260.414C431.723 259.535 436.264 258.656 440.902 257.777C445.541 256.85 450.082 255.678 454.525 254.262C454.916 254.262 455.136 254.335 455.185 254.481C455.282 254.579 455.331 254.75 455.331 254.994L448.446 326.918ZM524.691 276.381C523.666 276.283 522.519 276.186 521.249 276.088C519.979 275.941 518.637 275.868 517.221 275.868C515.072 275.868 512.875 276.063 510.629 276.454C508.432 276.796 506.381 277.504 504.477 278.578C502.572 279.652 500.937 281.142 499.569 283.046C498.202 284.901 497.323 287.318 496.933 290.297C496.591 293.91 496.298 296.889 496.054 299.232C495.858 301.527 495.712 303.432 495.614 304.945C495.517 306.41 495.419 307.606 495.321 308.534C495.272 309.413 495.224 310.243 495.175 311.024C495.175 311.22 495.126 311.757 495.028 312.636C494.979 313.515 494.882 314.54 494.735 315.712C494.589 316.884 494.442 318.153 494.296 319.521C494.198 320.888 494.076 322.157 493.93 323.329C493.783 324.501 493.661 325.526 493.563 326.405C493.515 327.284 493.49 327.821 493.49 328.017C493.49 328.407 493.49 328.749 493.49 329.042C493.539 329.286 493.563 329.53 493.563 329.774C493.563 330.165 493.368 330.507 492.978 330.8C492.636 331.044 491.83 331.337 490.561 331.679L471.151 338.637C470.614 338.832 469.906 339.076 469.027 339.369C468.148 339.662 467.294 339.809 466.464 339.809C465.78 339.809 465.17 339.638 464.633 339.296C464.145 338.954 463.9 338.368 463.9 337.538L470.199 264.955C470.346 263.344 470.517 262.245 470.712 261.659C470.956 261.024 471.518 260.609 472.396 260.414C476.84 259.535 481.43 258.656 486.166 257.777C490.902 256.85 495.492 255.678 499.936 254.262C500.326 254.262 500.546 254.335 500.595 254.481C500.692 254.579 500.741 254.75 500.741 254.994C500.741 255.092 500.717 255.238 500.668 255.434C500.668 255.629 500.595 256.068 500.448 256.752C500.351 257.436 500.18 258.485 499.936 259.901C499.74 261.269 499.447 263.197 499.057 265.688C501.303 263.93 503.769 262.318 506.454 260.854C509.188 259.389 511.923 258.144 514.657 257.118C517.392 256.044 520.028 255.214 522.567 254.628C525.106 253.993 527.328 253.676 529.232 253.676L524.691 276.381Z" fill="#F5DEB3"/>
<path d="M581.311 237.371C581.311 226.141 582.58 215.398 585.119 205.145C587.756 194.793 591.467 185.174 596.252 176.287C601.037 167.303 606.799 159.197 613.537 151.971C620.373 144.646 627.99 138.396 636.389 133.221C644.787 127.947 653.869 123.895 663.635 121.062C673.498 118.23 683.85 116.814 694.689 116.814C703.283 116.814 710.803 117.4 717.248 118.572C723.791 119.646 729.455 121.062 734.24 122.82C739.123 124.48 743.176 126.336 746.398 128.387C749.719 130.438 752.453 132.391 754.602 134.246C754.504 134.246 754.455 134.588 754.455 135.271C754.455 136.736 754.553 139.422 754.748 143.328C755.041 147.234 755.334 151.58 755.627 156.365C756.018 161.15 756.311 166.033 756.506 171.014C756.799 175.896 756.945 180.145 756.945 183.758C756.945 184.344 756.75 185.027 756.359 185.809C755.969 186.492 754.992 186.834 753.43 186.834C752.551 186.834 751.477 186.688 750.207 186.395C748.156 185.809 745.568 184.49 742.443 182.439C739.318 180.291 735.656 178.094 731.457 175.848C727.355 173.504 722.717 171.453 717.541 169.695C712.463 167.84 706.896 166.912 700.842 166.912C692.834 166.912 685.559 168.621 679.016 172.039C672.473 175.359 666.906 180.047 662.316 186.102C657.727 192.059 654.162 199.188 651.623 207.488C649.084 215.691 647.814 224.627 647.814 234.295C647.814 242.791 648.596 250.75 650.158 258.172C651.721 265.594 654.064 272.039 657.189 277.508C660.412 282.879 664.367 287.127 669.055 290.252C673.742 293.377 679.26 294.939 685.607 294.939C691.76 294.939 698.742 293.621 706.555 290.984L709.924 270.33H681.945C684.094 258.514 685.949 249.236 687.512 242.498C689.074 235.76 690.539 230.682 691.906 227.264C693.273 223.846 694.689 221.697 696.154 220.818C697.619 219.939 699.328 219.5 701.281 219.5H778.332C780.578 219.5 782.189 219.646 783.166 219.939C784.24 220.232 784.777 221.258 784.777 223.016C784.777 223.895 784.68 224.969 784.484 226.238C784.289 227.41 784.045 228.875 783.752 230.633L776.428 255.242C775.549 258.367 774.816 260.809 774.23 262.566C773.645 264.227 772.912 265.496 772.033 266.375C771.154 267.156 769.934 267.645 768.371 267.84C766.906 267.938 764.758 267.986 761.926 267.986C760.363 267.986 759.436 268.621 759.143 269.891C758.85 271.16 758.605 272.479 758.41 273.846C757.824 278.143 757.238 282.439 756.652 286.736C756.066 290.936 755.48 294.891 754.895 298.602C754.406 302.215 753.869 305.438 753.283 308.27C752.697 311.004 752.111 313.006 751.525 314.275C744.885 318.475 738.83 322.186 733.361 325.408C727.99 328.533 722.619 331.121 717.248 333.172C711.877 335.32 706.213 336.932 700.256 338.006C694.299 339.08 687.463 339.617 679.748 339.617C665.979 339.617 653.088 337.127 641.076 332.146C629.064 327.166 618.615 320.184 609.729 311.199C600.939 302.117 594.006 291.326 588.928 278.826C583.85 266.326 581.311 252.508 581.311 237.371ZM863.659 322.918C863.513 324.529 863.317 325.652 863.073 326.287C862.829 326.873 862.292 327.264 861.462 327.459C857.312 328.631 852.966 329.827 848.425 331.048C843.933 332.22 839.562 333.782 835.314 335.735C835.168 335.784 834.948 335.809 834.655 335.809C834.265 335.809 834.021 335.711 833.923 335.516C833.874 335.32 833.85 335.101 833.85 334.856C833.85 334.759 833.85 334.588 833.85 334.344C833.898 334.1 833.972 333.636 834.069 332.952C834.167 332.317 834.289 331.414 834.436 330.242C834.631 329.07 834.875 327.508 835.168 325.555C829.699 329.119 824.841 331.707 820.593 333.318C816.394 334.979 812.658 335.809 809.387 335.809C801.232 335.809 795.275 333.855 791.516 329.949C787.805 325.994 785.949 320.11 785.949 312.298C785.949 310.882 785.974 309.441 786.022 307.977C786.071 306.463 786.218 304.925 786.462 303.362C786.999 297.601 787.463 292.669 787.854 288.567C788.244 284.417 788.562 280.901 788.806 278.021C789.05 275.14 789.245 272.796 789.392 270.989C789.587 269.134 789.733 267.596 789.831 266.375C789.978 265.154 790.075 264.153 790.124 263.372C790.222 262.542 790.319 261.736 790.417 260.955C790.612 259.393 790.783 258.294 790.93 257.659C791.125 257.024 791.687 256.609 792.614 256.414C794.909 255.975 797.082 255.584 799.133 255.242C801.232 254.852 803.283 254.461 805.285 254.07C807.336 253.631 809.411 253.167 811.511 252.679C813.61 252.19 815.832 251.604 818.176 250.921C818.273 250.921 818.371 250.921 818.469 250.921C818.566 250.872 818.664 250.848 818.762 250.848C819.348 250.848 819.641 251.043 819.641 251.434V251.58C819.445 253.24 819.274 254.803 819.128 256.268C818.981 257.732 818.835 259.246 818.688 260.809C818.542 262.322 818.371 263.958 818.176 265.716C818.029 267.474 817.834 269.524 817.59 271.868C817.346 274.163 817.053 276.824 816.711 279.852C816.369 282.879 815.954 286.395 815.466 290.398C815.173 293.328 814.88 296.258 814.587 299.188C814.294 302.068 814.147 304.754 814.147 307.244C814.147 308.611 814.245 309.881 814.44 311.053C814.636 312.176 814.978 313.152 815.466 313.982C816.003 314.764 816.687 315.374 817.517 315.813C818.347 316.253 819.421 316.473 820.739 316.473C821.765 316.473 823.156 316.253 824.914 315.813C826.672 315.325 828.43 314.52 830.188 313.396C831.945 312.225 833.483 310.711 834.802 308.855C836.169 306.951 836.95 304.559 837.146 301.678C837.487 296.844 837.78 292.815 838.024 289.593C838.317 286.321 838.562 283.587 838.757 281.39C838.952 279.144 839.123 277.264 839.27 275.75C839.416 274.236 839.538 272.796 839.636 271.429C839.782 270.013 839.904 268.523 840.002 266.961C840.1 265.35 840.197 263.348 840.295 260.955C840.441 259.344 840.612 258.245 840.808 257.659C841.052 257.024 841.613 256.609 842.492 256.414C846.936 255.535 851.477 254.656 856.115 253.777C860.754 252.85 865.295 251.678 869.738 250.262C870.129 250.262 870.349 250.335 870.397 250.481C870.495 250.579 870.544 250.75 870.544 250.994L863.659 322.918ZM881.896 300.945C882.531 294.256 883.166 287.64 883.801 281.097C884.436 274.554 884.997 267.84 885.485 260.955C885.583 259.344 885.729 258.245 885.925 257.659C886.169 257.024 886.73 256.609 887.609 256.414C891.76 255.584 896.105 254.729 900.646 253.851C905.188 252.923 909.582 251.751 913.83 250.335C913.977 250.286 914.196 250.262 914.489 250.262C915.026 250.262 915.295 250.457 915.295 250.848L908.703 322.186C908.557 323.797 908.386 324.92 908.19 325.555C907.995 326.141 907.458 326.531 906.579 326.727C902.429 327.996 898.229 329.412 893.981 330.975C889.733 332.537 885.241 334.124 880.505 335.735C880.358 335.784 880.139 335.809 879.846 335.809C879.309 335.809 879.04 335.564 879.04 335.076C879.04 335.027 879.089 334.368 879.187 333.099C879.284 331.829 879.406 330.193 879.553 328.191C879.748 326.189 879.943 323.943 880.139 321.453C880.334 318.963 880.529 316.473 880.725 313.982C880.969 311.492 881.188 309.1 881.384 306.805C881.579 304.51 881.75 302.557 881.896 300.945ZM887.39 242.498C887.536 240.398 887.634 238.787 887.683 237.664C887.78 236.541 887.854 235.711 887.902 235.174C887.951 234.588 887.976 234.222 887.976 234.075C887.976 233.929 887.976 233.831 887.976 233.782C888.024 233.685 888.049 233.538 888.049 233.343C888.098 233.099 888.146 232.635 888.195 231.951C888.244 231.219 888.317 230.169 888.415 228.802C888.513 227.435 888.659 225.555 888.854 223.162C888.952 221.551 889.099 220.452 889.294 219.866C889.538 219.231 890.1 218.816 890.979 218.621C895.129 217.791 899.475 216.937 904.016 216.058C908.557 215.13 912.951 213.958 917.199 212.542C917.346 212.493 917.565 212.469 917.858 212.469C918.005 212.762 918.2 212.957 918.444 213.055L918.664 213.201L917.053 233.27C916.906 234.881 916.711 236.004 916.467 236.639C916.271 237.273 915.759 237.664 914.929 237.811C910.778 238.592 906.579 239.446 902.331 240.374C898.083 241.302 893.591 242.229 888.854 243.157C888.708 243.206 888.488 243.23 888.195 243.23C887.658 243.23 887.39 242.986 887.39 242.498ZM980.261 290.325C980.407 288.763 980.554 287.127 980.7 285.418C980.896 283.709 981.115 281.927 981.359 280.071C980.236 277.142 978.649 274.773 976.599 272.967C974.548 271.111 971.984 270.184 968.908 270.184C965.881 270.184 963.317 271.062 961.218 272.82C959.118 274.529 957.434 276.653 956.164 279.192C954.895 281.731 953.967 284.417 953.381 287.249C952.844 290.032 952.575 292.498 952.575 294.646C952.575 297.283 952.722 299.896 953.015 302.483C953.356 305.071 953.869 307.415 954.553 309.515C955.285 311.614 956.237 313.323 957.409 314.642C958.581 315.911 960.046 316.546 961.804 316.546C966.101 316.399 969.592 315.423 972.277 313.616C974.963 311.81 977.111 309.612 978.723 307.024L980.261 290.325ZM1005.82 324.603C1005.82 324.7 1005.8 324.822 1005.75 324.969C1005.75 325.066 1005.75 325.164 1005.75 325.262C1005.75 325.506 1005.75 325.701 1005.75 325.848C1005.8 325.994 1005.82 326.141 1005.82 326.287C1005.82 326.727 1005.65 327.093 1005.31 327.386C1005.02 327.63 1004.21 327.923 1002.89 328.265L983.264 334.637C982.727 334.832 982.019 335.076 981.14 335.369C980.261 335.662 979.406 335.809 978.576 335.809C977.893 335.809 977.282 335.638 976.745 335.296C976.257 334.954 976.013 334.319 976.013 333.392C976.013 332.513 976.013 331.805 976.013 331.268C976.062 330.73 976.086 330.242 976.086 329.803C976.135 329.314 976.184 328.802 976.232 328.265C976.33 327.728 976.428 327.02 976.525 326.141C972.863 329.07 969.079 331.414 965.173 333.172C961.315 334.93 957.238 335.809 952.941 335.809C948.254 335.809 944.079 334.686 940.417 332.439C936.804 330.242 933.752 327.288 931.262 323.577C928.771 319.817 926.867 315.545 925.549 310.76C924.279 305.926 923.645 300.896 923.645 295.672C923.645 288.885 924.743 282.708 926.94 277.142C929.187 271.526 932.214 266.741 936.022 262.786C939.831 258.782 944.274 255.706 949.353 253.558C954.431 251.36 959.826 250.262 965.539 250.262C968.615 250.262 971.545 251.067 974.328 252.679C977.16 254.29 979.821 256.365 982.312 258.904C982.458 256.512 982.629 253.924 982.824 251.141C983.02 248.309 983.215 245.452 983.41 242.571C983.605 239.642 983.801 236.761 983.996 233.929C984.191 231.097 984.362 228.509 984.509 226.165C984.509 225.726 984.655 225.384 984.948 225.14C985.29 224.847 986.12 224.529 987.438 224.188L1008.02 219.28C1008.56 219.183 1009.26 218.963 1010.14 218.621C1011.02 218.279 1011.88 218.108 1012.71 218.108C1013.34 218.108 1013.93 218.255 1014.46 218.548C1015.05 218.841 1015.34 219.402 1015.34 220.232C1015.34 220.33 1015.32 220.55 1015.27 220.892C1015.27 221.185 1015.27 221.38 1015.27 221.478L1005.82 324.603ZM1065.88 250.262C1070.52 250.262 1074.72 251.141 1078.48 252.898C1082.29 254.607 1085.53 256.854 1088.22 259.637C1090.95 262.371 1093.05 265.447 1094.52 268.865C1095.98 272.283 1096.72 275.701 1096.72 279.119C1096.72 282.146 1095.79 285.198 1093.93 288.274C1092.08 291.302 1089.46 294.036 1086.1 296.478C1082.78 298.919 1078.77 300.896 1074.08 302.41C1069.4 303.924 1064.25 304.681 1058.63 304.681C1055.7 304.681 1052.62 304.388 1049.4 303.802C1049.6 305.901 1050.21 307.708 1051.23 309.222C1052.26 310.735 1053.55 311.98 1055.11 312.957C1056.68 313.934 1058.43 314.666 1060.39 315.154C1062.39 315.594 1064.44 315.813 1066.54 315.813C1068.88 315.813 1071.13 315.618 1073.28 315.228C1075.48 314.788 1077.58 314.227 1079.58 313.543C1081.58 312.859 1083.51 312.103 1085.36 311.272C1087.22 310.442 1088.98 309.612 1090.64 308.782C1091.08 308.685 1091.44 308.611 1091.74 308.562C1092.08 308.465 1092.39 308.416 1092.69 308.416C1092.69 308.416 1092.66 308.807 1092.61 309.588C1092.61 310.369 1092.61 311.468 1092.61 312.884C1092.61 314.3 1092.59 316.009 1092.54 318.011C1092.54 320.013 1092.52 322.234 1092.47 324.676C1092.61 324.92 1092.71 325.164 1092.76 325.408C1092.81 325.652 1092.83 325.848 1092.83 325.994C1092.83 326.58 1092.3 327.215 1091.22 327.898C1090.15 328.582 1088.73 329.29 1086.97 330.022C1085.27 330.755 1083.29 331.463 1081.04 332.146C1078.84 332.83 1076.6 333.44 1074.3 333.978C1072.01 334.563 1069.79 335.003 1067.64 335.296C1065.49 335.638 1063.61 335.809 1062 335.809C1056.73 335.809 1051.6 334.881 1046.62 333.025C1041.69 331.219 1037.29 328.606 1033.43 325.188C1029.63 321.771 1026.57 317.62 1024.28 312.737C1021.98 307.854 1020.84 302.361 1020.84 296.258C1020.84 289.861 1021.94 283.88 1024.13 278.313C1026.33 272.698 1029.41 267.815 1033.36 263.665C1037.37 259.515 1042.13 256.243 1047.64 253.851C1053.16 251.458 1059.24 250.262 1065.88 250.262ZM1065 269.744C1063 269.744 1061.14 270.184 1059.44 271.062C1057.78 271.893 1056.24 273.113 1054.82 274.725C1053.45 276.287 1052.26 278.191 1051.23 280.438C1050.21 282.635 1049.38 285.076 1048.74 287.762C1053.77 286.883 1057.95 285.955 1061.27 284.979C1064.59 284.002 1067.25 283.025 1069.25 282.049C1071.25 281.023 1072.67 280.022 1073.5 279.046C1074.33 278.021 1074.74 277.044 1074.74 276.116C1074.74 275.237 1074.4 274.407 1073.72 273.626C1073.08 272.845 1072.28 272.161 1071.3 271.575C1070.32 270.989 1069.25 270.55 1068.08 270.257C1066.96 269.915 1065.93 269.744 1065 269.744Z" fill="#F5DEB3"/>
</g>
<defs>
<filter id="filter0_d_1050_91" x="0" y="77" width="1108.72" height="275.063" filterUnits="userSpaceOnUse" color-interpolation-filters="sRGB">
<feFlood flood-opacity="0" result="BackgroundImageFix"/>
<feColorMatrix in="SourceAlpha" type="matrix" values="0 0 0 0 0 0 0 0 0 0 0 0 0 0 0 0 0 0 127 0" result="hardAlpha"/>
<feOffset dx="4" dy="4"/>
<feGaussianBlur stdDeviation="4"/>
<feComposite in2="hardAlpha" operator="out"/>
<feColorMatrix type="matrix" values="0 0 0 0 0 0 0 0 0 0 0 0 0 0 0 0 0 0 0.15 0"/>
<feBlend mode="normal" in2="BackgroundImageFix" result="effect1_dropShadow_1050_91"/>
<feBlend mode="normal" in="SourceGraphic" in2="effect1_dropShadow_1050_91" result="shape"/>
</filter>
</defs>
</svg>
