<svg width="650" height="650" viewBox="0 0 650 650" fill="none" xmlns="http://www.w3.org/2000/svg">
<rect width="650" height="650" rx="325" fill="#02001E"/>
<path fill-rule="evenodd" clip-rule="evenodd" d="M398.5 120.952C404 121.991 409.07 122.959 409.766 123.105C410.563 123.272 409.354 125.868 406.502 130.114C402.483 136.099 401.463 136.987 397.454 137.997C392.971 139.127 392.948 139.154 394.515 141.547C396.039 143.875 395.932 144.146 391.413 149.441C388.728 152.586 385.617 155.164 384.116 155.486C382.677 155.796 378.479 156.922 374.787 157.991C370.552 159.216 366.675 159.72 364.287 159.352C360.875 158.828 360.341 159.057 358.896 161.662C358.015 163.252 354.19 166.619 350.396 169.143C338.557 177.02 324.861 192.876 321.489 202.609L320.164 206.436L318.892 203.433C318.096 201.554 317.627 195.941 317.639 188.422C317.695 153.487 334.553 127.447 361.644 120.452C369.833 118.339 385.804 118.555 398.5 120.952ZM228.499 130.342C261.061 136.329 293.073 159.711 307.567 188.093C310.486 193.81 312.168 200.709 310.842 201.529C308.937 202.708 298.835 196.763 296.76 193.242C295.52 191.141 294.198 190.017 293.349 190.343C291.291 191.133 268.43 177.166 265.509 173.333C263.273 170.398 262.682 170.138 260.009 170.905C257.563 171.607 255.373 171.053 248.069 167.882C239.975 164.369 220.884 158.018 213.638 156.429C210.925 155.834 210.863 155.704 212.448 153.952C214.052 152.178 213.875 152.075 208.13 151.407C204.836 151.025 201.293 150.981 200.256 151.31C198.367 151.91 184.168 146.588 174.566 141.68L169.631 139.159L173.066 138.082C203.535 128.533 212.133 127.333 228.499 130.342ZM156.432 154.99C206.302 158.358 256.182 173.475 295.18 197.039C309.484 205.683 319.96 213.24 319.998 214.943C320.05 217.341 321.966 213.942 321.985 211.417C322.011 207.901 329.227 196.905 336.834 188.785C353.855 170.618 373.841 162.305 403.171 161.19C424.66 160.374 446.201 163.565 468.894 170.927C480.603 174.725 494 180.006 494 180.823C494 181.169 491.899 183.854 489.332 186.791C484.37 192.468 484.37 192.468 476 190.377C474.625 190.034 477.775 192.097 483 194.964C517.644 213.968 543.441 240.487 560.36 274.49C569.53 292.919 577.913 320.226 574.96 322.053C573.572 322.912 565.001 324.393 564.536 323.854C564.381 323.675 563.05 318.8 561.577 313.021C550.088 267.929 519.182 228.576 477.941 206.522L470.109 202.335L460.348 207.059C454.98 209.657 445.027 213.68 438.231 215.995C425.697 220.268 421.728 220.64 413.285 218.334C411.478 217.841 410.767 218.367 409.42 221.194C407.803 224.586 407.558 224.695 397.635 226.465C392.061 227.459 386.9 228.576 386.167 228.949C385.355 229.362 387.306 230.523 391.167 231.924C406.147 237.359 429.354 250.553 445.5 262.814C456.216 270.951 470.021 283.155 469.487 284.02C469.2 284.483 466.507 285.413 463.503 286.086L458.04 287.309L452.426 283.579C449.338 281.528 446.58 280.081 446.297 280.365C446.014 280.648 446.731 282.214 447.891 283.845C449.051 285.475 450 287.142 450 287.55C450 288.705 426.468 287.292 417 285.568C397.42 282.001 398.845 282.622 393.496 275.332L388.66 268.74L386.305 273.379C384.177 277.57 383.685 277.958 381.224 277.395C377.245 276.487 338.172 263.437 333.63 261.501C329.993 259.95 329.793 259.643 330.317 256.412C330.623 254.52 330.565 252.977 330.187 252.982C329.809 252.986 327.9 254.508 325.945 256.364C323.12 259.044 321.802 261.665 319.534 269.115C317.964 274.273 316.189 278.825 315.59 279.229C314.08 280.247 303.8 280.154 302.149 279.107C301.125 278.457 300.883 275.918 301.149 268.613C301.342 263.313 301.232 258.977 300.905 258.977C300.578 258.978 299.521 259.85 298.556 260.917C297.168 262.452 296.289 262.661 294.336 261.918C290.497 260.457 289.828 260.786 291.487 263.32C292.99 265.616 292.839 265.806 283.81 273.032C278.745 277.085 269.628 283.887 263.549 288.146L252.499 295.89L249.874 293.378L247.247 290.867L243.627 297.345C240.131 303.601 239.673 303.996 230.254 308.825C218.747 314.724 209.502 318.567 202.254 320.464L197.009 321.835L197.651 319.18C198.003 317.718 198.665 315.511 199.121 314.272C200.569 310.336 198.458 311.836 194.543 317.524L190.755 323.029H184.36H177.966L180.558 317.911C195.113 289.164 216.139 263.362 235.647 250.311C243.907 244.784 258.68 237.961 262.385 237.961C263.183 237.961 264.546 237.689 265.413 237.355C266.832 236.81 266.819 236.462 265.279 233.853C263.201 230.333 262.674 230.277 260.651 233.366L259.073 235.778L252.285 234.237C245.35 232.663 215.962 224.279 215.504 223.745C215.365 223.583 214.356 221.68 213.262 219.517L211.273 215.586L200.386 215.514C189.603 215.444 189.228 215.359 161 206.629C124.286 195.274 101.049 186.044 98.4058 181.764C98.0568 181.199 99.4428 179.021 101.486 176.926L105.202 173.118L96.8128 173.642L88.4238 174.165L81.7118 166.91C78.0198 162.92 74.9998 159.323 74.9998 158.918C74.9998 157.944 89.3368 156.05 105.5 154.887C120.56 153.804 139.445 153.842 156.432 154.99ZM377.355 169.992C368.325 172.74 359.075 177.841 350.654 184.718C343.983 190.164 332.957 202.994 328.949 209.972C327.234 212.96 327.471 212.816 330.661 208.938C337.824 200.231 352.574 186.351 359.5 181.802C368.358 175.984 373.819 173.2 382 170.332C390.19 167.462 386.546 167.195 377.355 169.992ZM373.185 187.86C361.919 191.103 339.98 202.92 337.365 207.154C336.948 207.83 338.158 207.363 340.053 206.117C357.292 194.781 381.836 187.113 401.881 186.802C407.796 186.71 408.829 186.498 406.5 185.855C401.121 184.37 381.132 185.573 373.185 187.86ZM218.5 186.78C215.427 187.354 217.512 187.675 227.499 188.168C234.649 188.522 244.324 189.549 248.999 190.452C265.963 193.73 287.144 201.874 300.032 210.076C308.721 215.605 308.729 215.609 307.094 213.594C305.033 211.052 290.577 201.686 282.5 197.659C274.515 193.679 262.502 189.535 252.999 187.483C246.036 185.979 225.087 185.552 218.5 186.78ZM237.999 203.975C230.726 205.123 219.03 208.661 217.5 210.175C216.839 210.829 217.178 210.966 218.5 210.581C239.208 204.543 263.93 204.847 286.383 211.412C291.268 212.841 295.454 213.821 295.686 213.59C295.917 213.358 292.37 211.819 287.803 210.17C270.16 203.797 252.801 201.637 237.999 203.975ZM339.799 229.061C332.774 230.529 331.347 231.988 338.172 230.724C341.103 230.182 348.9 229.948 355.5 230.203C364.941 230.569 369.046 231.211 374.75 233.213C382.585 235.964 383.887 235.996 378.75 233.311C369.011 228.222 352.456 226.415 339.799 229.061ZM284.102 232.009C280.582 232.581 276.533 233.72 275.102 234.54C273.253 235.6 273.079 235.892 274.5 235.547C286.442 232.652 295.557 232.623 306.75 235.446C309.638 236.175 311.781 236.414 311.512 235.978C310.807 234.836 297.879 231.604 292 231.1C291.175 231.028 287.621 231.438 284.102 232.009ZM213.128 232.707C214.371 234.294 214.336 234.329 212.75 233.085C211.788 232.329 211 231.541 211 231.334C211 230.51 211.821 231.039 213.128 232.707ZM348.824 235.488C360.316 238.412 370.756 243.479 379.018 250.143C384.379 254.465 384.979 254.753 383.088 252.095C380.473 248.419 370.183 240.885 364.5 238.485C358.529 235.962 346.975 233.064 343 233.091C340.584 233.108 342.387 233.85 348.824 235.488ZM291.093 238.501C283.596 240.27 274.158 245.053 270.837 248.767L268.5 251.381L271 249.674C279.318 243.999 288.011 240.556 299.183 238.514C305.846 237.296 306.098 237.168 302 237.083C299.525 237.032 294.617 237.67 291.093 238.501ZM308.75 282.74C316.847 283.125 317.106 283.474 314.979 291.14C313.992 294.696 307.706 301.494 303.144 303.937C301.01 305.079 301 305.033 301 293.54C301 287.191 301.113 282.085 301.25 282.195C301.387 282.304 304.762 282.549 308.75 282.74ZM370.595 286.249L372.5 288.501L370.25 286.595C368.136 284.803 367.545 283.998 368.345 283.998C368.535 283.998 369.547 285.01 370.595 286.249ZM392.128 289.752C393.371 291.339 393.336 291.374 391.75 290.131C390.084 288.822 389.555 288.001 390.378 288.001C390.585 288.001 391.373 288.789 392.128 289.752ZM315.418 307.237C315.793 311.244 316.333 315.311 316.618 316.273C317.077 317.831 316.311 318.025 309.698 318.025H302.262L301.642 314.272C300.682 308.461 300.736 308.337 305.25 305.799C307.587 304.486 310.678 302.633 312.118 301.682L314.736 299.953L315.418 307.237ZM488.9 245.296C490.809 246.972 493.144 250.372 494.089 252.849C495.404 256.295 496.184 257.192 497.404 256.668C506.303 252.844 512.029 253.732 518.185 259.892C523.433 265.146 523.342 266.455 517.98 262.814C511.016 258.084 501.607 257.188 496.842 260.802C494.122 262.865 493.818 262.652 493.102 258.174C492.28 253.024 485.685 245.765 480 243.752L476 242.334L480.715 242.29C484.58 242.254 486.056 242.797 488.9 245.296ZM229.999 317.741C232.474 318.534 235.024 319.345 235.666 319.542C236.513 319.801 236.32 321.892 234.962 327.177C230.272 345.424 229.915 369.476 234.056 388.081C237.139 401.927 237.304 401.088 231.079 403.227C228.098 404.25 225.584 404.977 225.491 404.841C224.805 403.844 221.794 390.997 220.534 383.696C218.56 372.257 218.541 348.369 220.498 336.539C221.883 328.164 224.465 317.155 225.186 316.557C225.358 316.414 227.524 316.947 229.999 317.741ZM318.415 324.355C319.157 328.067 316.527 331.836 310.327 335.946C307.758 337.648 305.324 339.041 304.916 339.041C304.186 339.041 303.66 336.338 302.483 326.532L301.882 321.528L309.861 321.5L317.839 321.474L318.415 324.355ZM321 332.965C321 333.668 322.8 338.087 325 342.785C327.2 347.484 329 351.45 329 351.6C329 352.463 311.921 353.094 309 352.339C305.778 351.506 305.46 351.082 305 346.99L304.5 342.544L310.5 339.191C313.8 337.346 317.512 334.903 318.75 333.762C320.16 332.462 321 332.164 321 332.965ZM294.336 315.079C297.285 316.43 297.234 316.455 291.32 316.536C284.264 316.631 279.314 318.889 276.217 323.427L274.098 326.532L271.717 323.984C267.347 319.309 261.198 317.295 255.335 318.618C251.06 319.583 250.9 319.154 254.785 317.143C259.383 314.763 263.981 315.24 268.936 318.608L273.336 321.601L275.197 319.359C279.875 313.722 287.604 311.994 294.336 315.079ZM332.904 357.744C333.769 359.646 333.151 360.711 328.2 365.845C323.438 370.783 313.163 378.029 310.874 378.064C310.53 378.069 309.488 373.906 308.559 368.815C307.63 363.724 306.695 358.657 306.48 357.556C306.105 355.638 306.625 355.555 318.998 355.555C331.307 355.555 331.954 355.657 332.904 357.744ZM338.789 366.371C340.026 368.129 343 365.892 343 368.815L348.824 372.027H355.731C397.666 364.866 439.215 369.067 467.5 383.328C474.535 386.875 491 394.452 491 394.452C492.31 396.032 531.5 416.351 528.5 419.452C522 416.351 446.834 394.786 445.5 394.452C443.5 393.952 382.096 389.273 366 390.89C307.447 396.769 247.905 411.654 197.604 432.988C191.221 435.695 185.999 437.766 185.999 437.591C185.999 436.814 223.028 417.598 237.887 410.664C256.554 401.954 284.791 388.876 301.642 383.328C316.238 378.523 327.25 373.157 334.869 364.972C336.465 363.258 336.642 363.321 338.789 366.371Z" fill="#F5DEB3"/>
<path d="M340.5 514.086C335.54 512.096 317.05 518.869 316.5 518.871C314.041 518.882 283.422 528.031 262 535.157C239.625 542.599 203.894 556.191 195.652 560.396C193.536 561.476 191.626 562.179 191.407 561.96C190.702 561.254 245.941 534.587 263.035 527.38C300.876 511.427 336.661 499.922 369.359 493.195C410.789 484.673 451.034 484.566 477.101 492.91L482.5 494.638L478 494.882C423.666 497.824 399.612 500.649 359.5 508.804L340.5 514.086Z" fill="#F5DEB3"/>
<path fill-rule="evenodd" clip-rule="evenodd" d="M424.822 292.983C422.749 294.016 414.219 334.718 412.629 343.335C410.96 352.386 419.563 361.341 426.396 365.669C432.713 369.671 440.85 370.643 450.917 368.598L458.296 367.099L457.274 369.475C456.711 370.781 455.945 372.467 455.57 373.218C455.195 373.971 455.585 374.634 456.436 374.691C460.196 374.948 478.044 383.344 478.501 382.952C479.212 382.339 506.352 311.532 506.029 311.129C505.882 310.947 499.81 310.523 492.533 310.186L479.303 309.572L472.477 328.543C468.723 338.976 464.843 348.783 463.854 350.335C460.73 355.238 443.357 353.496 439.093 350.133C436.496 348.085 438.346 340.727 446.849 319.272C451.185 308.331 455.109 298.512 455.569 297.452C456.329 295.701 455.334 295.415 444.677 294.325C438.227 293.665 425.681 292.554 424.822 292.983Z" fill="#F5DEB3"/>
<path fill-rule="evenodd" clip-rule="evenodd" d="M369.609 284.172C369.009 284.439 366.185 285.012 363.334 285.446C359.194 286.075 358.15 286.708 358.15 288.594C358.15 290.078 356.631 291.839 354.058 293.337C343.705 299.364 337.265 311.427 336.576 326.081C336.02 337.908 338.5 346.753 344.64 354.843C361.697 377.316 400.067 366.774 407.776 337.495C413.538 315.614 404.366 292.335 387.615 286.327C383.46 284.836 371.367 283.389 369.609 284.172ZM378.568 306.962C389.034 314.158 390.217 341.183 380.29 346.284C376.672 348.143 371.704 347.949 368.03 345.807C361.617 342.068 357.281 324.203 360.289 313.924C362.876 305.086 371.22 301.908 378.568 306.962Z" fill="#F5DEB3"/>
<path fill-rule="evenodd" clip-rule="evenodd" d="M539.052 318.838C531.726 317.96 525.468 317.379 525.146 317.546C524.824 317.713 518.471 331.238 511.029 347.602C503.586 363.967 496.111 380.189 494.417 383.651C491.996 388.598 491.664 390.235 492.861 391.301C494.214 392.505 510.588 403.482 514.998 402.452C516.025 402.211 525.609 383.553 531.299 371.328C536.519 360.112 541.744 350.041 542.91 348.947C546.805 345.292 565.27 342.497 572.632 345.138L579.5 347.602L583.354 336.882C587.833 324.426 588.422 324.922 571.614 326.998L550.581 330.349L552.758 325.674C554.034 322.936 554.406 320.881 553.654 320.715C552.949 320.561 546.377 319.715 539.052 318.838Z" fill="#F5DEB3"/>
<path fill-rule="evenodd" clip-rule="evenodd" d="M179.076 454.451C158.173 472.651 155.143 506.191 172.365 528.733C180.886 539.885 192.097 545.777 206.089 546.459C213.89 546.838 215.561 546.479 225.611 542.265C236.14 537.849 236.883 537.333 243.295 529.957C250.837 521.282 251.659 518.664 249.409 510.481C246.343 499.324 246.335 498.484 249.273 496.827C252.609 494.946 252.42 492.115 248.265 481.782L245.287 474.373L229.094 481.163C217.516 486.019 212.517 488.591 211.551 490.192C210.463 491.991 212.007 508.311 213.645 512.332C213.829 512.784 216.655 512.032 219.924 510.661L225.869 508.168L226.937 512.53C228.167 517.551 227.704 518.516 222.473 521.824C216.589 525.547 209.906 524.674 203.731 519.376C199.38 515.643 198.101 513.614 194.136 504.16C189.914 494.091 189.624 492.694 190.36 486.002C192.051 470.657 201.866 463.569 219.4 465.028C224.664 465.466 229.439 465.628 230.011 465.388C231.221 464.881 229.172 459.705 223.748 449.575L219.893 442.371L212.597 442.12C202.842 441.786 186.878 447.658 179.076 454.451Z" fill="#F5DEB3"/>
<path fill-rule="evenodd" clip-rule="evenodd" d="M270.434 450.16C268.038 451.51 264.097 453.433 261.677 454.435C259.257 455.435 256.877 456.677 256.389 457.194C255.227 458.424 260.854 492.572 263.709 501.605C267.223 512.727 272.651 515.699 284.024 512.728C290.08 511.146 291.641 510.143 301.07 501.775C301.415 501.467 302.119 502.823 302.633 504.788C303.425 507.821 303.793 508.184 305.071 507.193C305.898 506.551 310.172 503.815 314.566 501.114C318.961 498.412 322.715 495.52 322.908 494.686C323.276 493.093 314.397 438.004 313.707 437.6C313.205 437.306 293.76 447.342 293.296 448.135C293.108 448.456 294.392 456.869 296.148 466.83C298.274 478.88 299.061 485.809 298.5 487.537C297.257 491.369 292.897 495.501 289.502 496.066C284.708 496.864 283.065 494.039 281.195 481.783C280.332 476.116 278.814 466.195 277.823 459.737C276.833 453.279 275.745 447.93 275.406 447.85C275.068 447.771 272.831 448.811 270.434 450.16Z" fill="#F5DEB3"/>
<path fill-rule="evenodd" clip-rule="evenodd" d="M361.181 401.406C360.95 401.637 356.938 402.587 352.264 403.516C347.591 404.446 343.381 405.566 342.908 406.006C342.436 406.445 341.749 410.67 341.382 415.396C340.633 425.025 340.661 425.056 348.267 423.055C350.192 422.548 354.354 421.619 357.517 420.989L363.267 419.845V410.416C363.267 402.153 362.734 399.853 361.181 401.406ZM349.921 432.541C344.506 433.808 339.958 434.989 339.815 435.166C339.335 435.756 334.127 495.18 334.521 495.574C335.253 496.306 356.417 488.76 356.818 487.623C357.18 486.601 362.267 433.839 362.267 431.116C362.267 429.699 361.879 429.743 349.921 432.541Z" fill="#F5DEB3"/>
<path fill-rule="evenodd" clip-rule="evenodd" d="M430.336 396.456L420.609 398.485L419.744 403.617C419.269 406.44 418.777 410.828 418.652 413.369C418.527 415.91 418.085 419.347 417.671 421.007L416.916 424.027L413.02 420.912C402.798 412.743 383.139 419.965 374.934 434.903C367.991 447.542 370.111 468.72 379.216 477.663C385.729 484.059 396.944 484.705 405.942 479.202C408.019 477.932 409.845 476.898 410 476.906C410.156 476.913 410.021 478.253 409.703 479.883C408.839 484.305 410.873 484.544 422.367 481.37C432.007 478.707 432.599 478.389 433.186 475.54C434.544 468.938 443.055 405.521 443.303 400.145C443.616 393.367 444.263 393.551 430.336 396.456ZM413.393 436.668C415.534 439.382 415.574 439.896 414.427 450.015C413.124 461.502 412.018 463.935 406.8 466.787C401.696 469.577 397.354 468.942 395.26 465.101C392.861 460.702 392.386 452.241 394.151 445.386C395.289 440.962 396.512 438.89 399.684 436.005C403.353 432.668 404.119 432.379 407.46 433.074C409.744 433.549 412.021 434.928 413.393 436.668Z" fill="#F5DEB3"/>
<path fill-rule="evenodd" clip-rule="evenodd" d="M473.926 419.885C468.563 421.455 460.083 427.228 456.801 431.545C451.892 438.001 449.413 445.666 449.502 454.115C449.59 462.431 450.674 465.926 455.118 472.207C458.869 477.511 466.612 482.271 474.288 483.993C480.541 485.395 489.695 484.195 498.841 480.773L504.426 478.683V471.255C504.426 467.17 504.314 463.829 504.176 463.832C504.038 463.834 501.226 464.948 497.926 466.308C487.714 470.514 475.376 469.339 472.456 463.882C471.889 462.824 471.429 461.591 471.433 461.143C471.436 460.694 475.211 460.301 479.821 460.269C487.21 460.218 488.994 459.822 494.875 456.927C503.558 452.652 507.426 447.632 507.426 440.637C507.426 432.362 501.246 423.739 492.781 420.202C489.156 418.687 478.624 418.51 473.926 419.885ZM488.203 435.384C493.38 439.009 489.593 443.134 478.51 445.943C470.79 447.899 470.141 447.266 473.373 440.931C476.638 434.53 483.383 432.007 488.203 435.384Z" fill="#F5DEB3"/>
<path d="M574.47 354.561C580.571 389.927 575.716 426.313 560.554 458.841C545.392 491.37 520.648 518.485 489.639 536.553C458.631 554.621 422.84 562.778 387.065 559.93C351.289 557.082 317.24 543.365 289.481 520.618" stroke="#F5DEB3" stroke-width="12"/>
</svg>
